<?xml version="1.0" standalone="no"?>
<!DOCTYPE svg PUBLIC "-//W3C//DTD SVG 20010904//EN"
 "http://www.w3.org/TR/2001/REC-SVG-20010904/DTD/svg10.dtd">
<svg version="1.0" xmlns="http://www.w3.org/2000/svg"
 width="201.000000pt" height="237.000000pt" viewBox="0 0 201.000000 237.000000"
 preserveAspectRatio="xMidYMid meet">

<g transform="translate(0.000000,241.000000) scale(0.100000,-0.100000)"
fill="#000000" stroke="none">
<path d="M920 2354 c-64 -17 -198 -79 -273 -127 -74 -46 -104 -61 -172 -82
-33 -11 -67 -25 -76 -32 -8 -7 -21 -13 -27 -13 -17 0 -103 -96 -151 -168 -88
-135 -156 -316 -182 -482 -22 -143 -2 -380 51 -590 13 -53 24 -143 30 -240 9
-176 20 -230 57 -306 61 -125 214 -264 289 -264 19 0 43 -5 54 -12 15 -10 29
-10 65 0 25 7 59 12 76 12 17 0 44 9 60 21 22 16 42 20 77 18 45 -3 112 20
112 39 0 4 17 26 38 48 20 22 45 51 55 63 l19 23 42 -46 c24 -25 47 -46 52
-46 5 0 25 -14 44 -30 19 -17 58 -38 87 -47 54 -17 98 -14 252 17 29 6 55 9
57 7 3 -2 -19 -16 -48 -31 l-53 -26 51 3 c28 2 71 13 95 25 100 49 212 178
260 300 20 50 23 77 24 212 1 134 5 169 28 256 104 393 85 708 -61 999 -100
200 -258 363 -434 445 -136 64 -367 89 -498 54z m235 -61 c317 -100 560 -437
615 -852 6 -47 9 -110 6 -140 -3 -31 -8 -87 -11 -126 -6 -78 -11 -114 -25
-165 -13 -48 -14 -47 23 -47 18 1 38 -3 45 -7 10 -6 11 -1 7 17 -4 14 -2 28 4
31 6 4 11 12 11 18 0 7 -4 7 -12 1 -9 -6 -21 -5 -38 3 -22 12 -20 13 35 17 48
3 55 5 36 12 l-25 8 24 9 c16 6 20 12 13 19 -16 16 -3 49 18 49 12 0 19 -7 19
-19 0 -32 -31 -155 -41 -166 -12 -12 -8 33 4 53 11 17 -8 15 -23 -3 -7 -8 -10
-24 -7 -34 3 -11 2 -21 -3 -23 -4 -2 -10 -15 -13 -30 -6 -22 -3 -27 15 -31 20
-4 19 -4 -4 -6 -24 -1 -28 3 -28 24 0 32 -30 34 -31 3 -1 -22 -1 -22 -8 1 -9
34 -29 37 -42 7 -7 -14 -17 -26 -22 -26 -5 0 -46 17 -91 37 -152 69 -255 46
-387 -86 -74 -74 -146 -180 -174 -256 -34 -91 -44 -92 -81 -8 -58 130 -182
277 -288 341 -55 33 -68 36 -136 37 -62 0 -88 -5 -150 -32 -61 -25 -77 -29
-88 -18 -19 18 -39 118 -51 260 -15 172 -15 180 3 287 60 361 257 658 525 792
151 76 250 89 376 49z m701 -1390 c-11 -11 -17 4 -9 23 7 18 8 18 11 1 2 -10
1 -21 -2 -24z m-37 -49 c2 -2 -12 -4 -32 -4 -20 0 -39 5 -42 10 -6 9 64 4 74
-6z m-1155 -116 c51 -59 45 -71 -9 -18 -25 24 -45 48 -45 52 0 18 21 5 54 -34z
m1171 -48 c22 -43 18 -61 -5 -20 -11 19 -19 38 -20 43 0 15 10 6 25 -23z"/>
</g>
</svg>
